<svg width="88" height="84" viewBox="0 0 88 84" fill="none" xmlns="http://www.w3.org/2000/svg">
<rect width="88" height="84" rx="15" fill="#CDA15B"/>
<mask id="mask0_2419_727" style="mask-type:alpha" maskUnits="userSpaceOnUse" x="11" y="9" width="66" height="66">
<rect x="11" y="9.33325" width="65.3333" height="65.3333" fill="#D9D9D9"/>
</mask>
<g mask="url(#mask0_2419_727)">
<path d="M45.2164 69.2223C41.7052 69.2223 38.4211 68.3802 35.364 66.696C32.307 65.0123 29.8395 62.668 27.9616 59.6632L17.6172 43.0365L18.4393 42.2144C18.9279 41.7153 19.5098 41.4327 20.1849 41.3664C20.8605 41.3002 21.4809 41.4608 22.0462 41.8483L32.7779 48.9574V22.9445C32.7779 22.5919 32.9079 22.2771 33.1679 21.9999C33.4279 21.7222 33.7516 21.5834 34.139 21.5834C34.4916 21.5834 34.8064 21.7222 35.0836 21.9999C35.3613 22.2771 35.5001 22.5919 35.5001 22.9445V40.6389H42.7766V17.5C42.7766 17.1475 42.9066 16.8326 43.1666 16.5554C43.4266 16.2777 43.7503 16.1389 44.1378 16.1389C44.5252 16.1389 44.8489 16.2777 45.1089 16.5554C45.3689 16.8326 45.4989 17.1475 45.4989 17.5V40.6389H52.776V20.2222C52.776 19.8697 52.906 19.5549 53.166 19.2776C53.426 19 53.7497 18.8611 54.1372 18.8611C54.5242 18.8611 54.8479 19 55.1083 19.2776C55.3683 19.5549 55.4983 19.8697 55.4983 20.2222V40.6389H62.7224V24.3056C62.7224 23.9531 62.8524 23.6382 63.1123 23.361C63.3723 23.0833 63.696 22.9445 64.0835 22.9445C64.436 22.9445 64.7509 23.0833 65.0281 23.361C65.3058 23.6382 65.4446 23.9531 65.4446 24.3056V49.0465C65.4446 54.6688 63.4789 59.437 59.5476 63.3511C55.6158 67.2652 50.8387 69.2223 45.2164 69.2223Z" fill="#1C1B1F"/>
</g>
</svg>
