<svg width="88" height="84" viewBox="0 0 88 84" fill="none" xmlns="http://www.w3.org/2000/svg">
<rect width="88" height="84" rx="15" fill="#CDA15B"/>
<mask id="mask0_2419_722" style="mask-type:alpha" maskUnits="userSpaceOnUse" x="11" y="9" width="66" height="66">
<rect x="11" y="9.33325" width="65.3333" height="65.3333" fill="#D9D9D9"/>
</mask>
<g mask="url(#mask0_2419_722)">
<path d="M43.6665 68.2796C37.639 68.2796 32.5026 67.5598 28.2573 66.1202C24.0116 64.6806 21.8887 62.6782 21.8887 60.113C21.8887 58.8707 22.4558 57.741 23.5901 56.7238C24.7243 55.7061 26.2476 54.8833 28.16 54.2554L30.3854 56.2658C28.7729 56.7331 27.4073 57.3027 26.2885 57.9747C25.1701 58.6466 24.6109 59.3594 24.6109 60.113C24.6109 61.5022 26.396 62.7569 29.9662 63.8771C33.5364 64.9973 38.1031 65.5574 43.6665 65.5574C49.2298 65.5574 53.7965 64.9973 57.3667 63.8771C60.9369 62.7569 62.722 61.5022 62.722 60.113C62.722 59.3594 62.1628 58.6466 61.0444 57.9747C59.9256 57.3027 58.56 56.7331 56.9475 56.2658L59.1729 54.2554C61.0853 54.8833 62.6086 55.7061 63.7428 56.7238C64.8771 57.741 65.4442 58.8707 65.4442 60.113C65.4442 62.6782 63.3213 64.6806 59.0756 66.1202C54.8303 67.5598 49.6939 68.2796 43.6665 68.2796ZM43.6665 58.8567C42.9823 58.8567 42.3323 58.7303 41.7167 58.4776C41.1005 58.2244 40.5289 57.8796 40.0017 57.4431L22.8517 42.3192C22.5413 42.0297 22.3031 41.7051 22.1371 41.3453C21.9715 40.9859 21.8887 40.6125 21.8887 40.2251V34.8854C21.8887 34.463 21.9488 34.0636 22.069 33.687C22.1897 33.31 22.4052 32.9765 22.7155 32.6866L39.9704 16.6411C40.4626 16.1597 41.0282 15.7986 41.667 15.5577C42.3053 15.3167 42.9718 15.1963 43.6665 15.1963C44.3611 15.1963 45.0276 15.3167 45.6659 15.5577C46.3047 15.7986 46.8703 16.1597 47.3625 16.6411L64.6174 32.6866C64.9277 32.9765 65.1432 33.31 65.2639 33.687C65.3841 34.0636 65.4442 34.463 65.4442 34.8854V40.2251C65.4442 40.6125 65.3614 40.9859 65.1958 41.3453C65.0298 41.7051 64.7916 42.0297 64.4812 42.3192L47.3312 57.4431C46.804 57.8796 46.2324 58.2244 45.6162 58.4776C45.0006 58.7303 44.3506 58.8567 43.6665 58.8567ZM35.4998 37.2361C36.3128 37.2361 36.9961 36.9595 37.5496 36.4065C38.1027 35.8534 38.3792 35.1701 38.3792 34.3566C38.3792 33.5436 38.1027 32.8606 37.5496 32.3075C36.9961 31.754 36.3128 31.4772 35.4998 31.4772C34.6867 31.4772 34.0035 31.754 33.45 32.3075C32.8969 32.8606 32.6204 33.5436 32.6204 34.3566C32.6204 35.1701 32.8969 35.8534 33.45 36.4065C34.0035 36.9595 34.6867 37.2361 35.4998 37.2361ZM39.8451 41.2255C41.6214 41.9337 43.4562 42.1091 45.3495 41.7516C47.2428 41.3936 48.919 40.576 50.3781 39.2988C51.7111 38.1224 52.6071 36.6758 53.0663 34.9589C53.525 33.2417 53.4524 31.5507 52.8485 29.8861L39.8451 41.2255ZM43.6665 29.0694C44.4795 29.0694 45.1628 28.7929 45.7163 28.2398C46.2693 27.6868 46.5459 27.0035 46.5459 26.19C46.5459 25.3769 46.2693 24.6939 45.7163 24.1408C45.1628 23.5873 44.4795 23.3106 43.6665 23.3106C42.8534 23.3106 42.1701 23.5873 41.6166 24.1408C41.0636 24.6939 40.787 25.3769 40.787 26.19C40.787 27.0035 41.0636 27.6868 41.6166 28.2398C42.1701 28.7929 42.8534 29.0694 43.6665 29.0694Z" fill="black"/>
</g>
</svg>
